<svg id="Layer_1" data-name="Layer 1" xmlns="http://www.w3.org/2000/svg" viewBox="0 0 289 289"><defs><style>.cls-1{fill:#f8ad9d;}.cls-2{fill:#f7f7f7;}</style></defs><circle class="cls-1" cx="144.5" cy="144.5" r="144.5"/><path class="cls-2" d="M341.5,229h-7.58a86.07,86.07,0,0,0-9.73-23.49l5.36-5.36a12,12,0,0,0,0-17l-12.73-12.73a12,12,0,0,0-17,0l-5.36,5.36A86.07,86.07,0,0,0,271,166.08V158.5a12,12,0,0,0-12-12H241a12,12,0,0,0-12,12v7.58a86.07,86.07,0,0,0-23.49,9.73l-5.36-5.36a12,12,0,0,0-17,0l-12.73,12.73a12,12,0,0,0,0,17l5.36,5.36A86.07,86.07,0,0,0,166.08,229H158.5a12,12,0,0,0-12,12v18a12,12,0,0,0,12,12h7.58a86.07,86.07,0,0,0,9.73,23.49l-5.36,5.36a12,12,0,0,0,0,17l12.73,12.73a12,12,0,0,0,17,0l5.36-5.36A86.07,86.07,0,0,0,229,333.92v7.58a12,12,0,0,0,12,12h18a12,12,0,0,0,12-12v-7.58a86.07,86.07,0,0,0,23.49-9.73l5.36,5.36a12,12,0,0,0,17,0l12.73-12.73a12,12,0,0,0,0-17l-5.36-5.36A86.07,86.07,0,0,0,333.92,271h7.58a12,12,0,0,0,12-12V241A12,12,0,0,0,341.5,229ZM250,290.88A40.88,40.88,0,1,1,290.88,250,40.89,40.89,0,0,1,250,290.88Z" transform="translate(-105.5 -105.5)"/></svg>