<svg id="Layer_1" data-name="Layer 1" xmlns="http://www.w3.org/2000/svg" viewBox="0 0 312.35 220.47"><defs><style>.cls-1{fill:#fff;stroke:#ef8080;stroke-miterlimit:10;stroke-width:6px;}.cls-2{fill:#fec870;}.cls-3{fill:#5abc70;}.cls-4{fill:#1790cf;}.cls-5{fill:#ec1d25;}</style></defs><rect class="cls-1" x="3" y="76.25" width="72.26" height="70.61"/><rect class="cls-1" x="75.26" y="146.86" width="81.18" height="70.61"/><path class="cls-1" d="M96.82,274.1v59.57a11,11,0,0,0,11.05,11h61.22V274.1Z" transform="translate(-93.82 -127.24)"/><rect class="cls-1" x="156.45" y="76.25" width="81.18" height="70.61"/><rect class="cls-1" x="75.26" y="76.25" width="81.18" height="70.61"/><rect class="cls-1" x="237.63" y="76.25" width="71.73" height="70.61"/><path class="cls-1" d="M392.13,155.28H107.87a11.05,11.05,0,0,0-11.05,11.05v37.16H403.18V166.33A11.05,11.05,0,0,0,392.13,155.28Z" transform="translate(-93.82 -127.24)"/><rect class="cls-1" x="156.45" y="146.86" width="81.18" height="70.61"/><path class="cls-1" d="M331.45,344.71h60.68a11,11,0,0,0,11.05-11V274.1H331.45Z" transform="translate(-93.82 -127.24)"/><rect class="cls-1" x="33.22" y="3" width="34.95" height="50.09" rx="6.99"/><rect class="cls-2" x="84.92" y="88.99" width="61.88" height="12.71" rx="3.59"/><rect class="cls-3" x="84.92" y="107.27" width="61.88" height="12.71" rx="3.59"/><rect class="cls-4" x="166.1" y="157.27" width="61.88" height="12.71" rx="3.59"/><rect class="cls-5" x="10.18" y="157.27" width="57.98" height="12.71" rx="3.59"/></svg>