<svg id="Layer_1" data-name="Layer 1" xmlns="http://www.w3.org/2000/svg" viewBox="0 0 380.85 251.18"><defs><style>.cls-1,.cls-3,.cls-4,.cls-5{fill:none;stroke:#f8ad9d;}.cls-1,.cls-3{stroke-miterlimit:10;}.cls-1,.cls-3,.cls-4{stroke-width:8px;}.cls-2{fill:#f8ad9d;}.cls-3,.cls-4,.cls-5{stroke-linecap:round;}.cls-4,.cls-5{stroke-linejoin:round;}.cls-5{stroke-width:6px;}</style></defs><path class="cls-1" d="M156,179c-7.25,3.18-33.29,14.56-45,44-.93,2.33-13.38,35,3,64,24.43,43.19,93.27,43.44,128,28,19-8.43,28.67-19.13,31-22,1.95-2.4,21-26.69,15-57-7.19-36.17-44.23-51.22-56-56C224.27,176.86,191.39,163.5,156,179Z" transform="translate(-55.15 -106)"/><path class="cls-2" d="M210,142.49a36,36,0,0,0-6.53,6.45,33.48,33.48,0,0,0-4.51,7.6,31.55,31.55,0,0,0-2.31,8.22,16.72,16.72,0,0,0,.12,4.24,5.72,5.72,0,0,1-.28,2,7.17,7.17,0,0,1-.43,1,2.24,2.24,0,0,1-1.12.49,11,11,0,0,1-1.14.25l-.81.13-.42.07L192,173l-.92.12A24.61,24.61,0,0,1,184,173l-.53-.09-.42-.1-.8-.19a7.78,7.78,0,0,1-1.14-.39,2,2,0,0,1-1.07-.8,9.85,9.85,0,0,1-.29-1.59,9.11,9.11,0,0,1,.26-3.12c.56-2,1.53-3.94,2.19-5.88a45.25,45.25,0,0,1,5.71-10.76A43.1,43.1,0,0,1,206,135.51a4,4,0,0,1,4,6.91Z" transform="translate(-55.15 -106)"/><path class="cls-2" d="M177,146.32a40.41,40.41,0,0,1,5.31,5.24,41.8,41.8,0,0,1,4.35,6.26,45.79,45.79,0,0,1,3.22,7.08c.21.62.43,1.24.7,1.85a3.06,3.06,0,0,1,.2,2,6.52,6.52,0,0,1-.89,2,7.27,7.27,0,0,1-9.18,2.78l-.67-.32a10.5,10.5,0,0,1-2.13-1.29,6.51,6.51,0,0,1-1.27-1.23,1.64,1.64,0,0,1-.33-1.32,6.46,6.46,0,0,0,0-1.39,33.09,33.09,0,0,0-.81-5.53,36.34,36.34,0,0,0-1.76-5.48,37.25,37.25,0,0,0-2.7-5.3l-.07-.11a4,4,0,0,1,6-5.25Z" transform="translate(-55.15 -106)"/><path class="cls-3" d="M209,162a17.34,17.34,0,0,0-17,9" transform="translate(-55.15 -106)"/><polyline class="cls-4" points="216.85 4 194.35 24.83 205.6 35.94 187.85 53"/><polyline class="cls-4" points="244.21 23.32 218.96 40.73 228.5 53.33 208.5 67.68"/><circle class="cls-2" cx="124.35" cy="160.5" r="3.5"/><circle class="cls-2" cx="156.35" cy="159.5" r="3.5"/><circle class="cls-2" cx="140.35" cy="171.5" r="3.5"/><circle class="cls-2" cx="141.35" cy="187.5" r="2.5"/><path class="cls-1" d="M108,235c-7.36-7.82-19.13-8.23-26-2-6.2,5.62-6.94,15.34-3,22,4.91,8.3,16.92,11.58,27,6" transform="translate(-55.15 -106)"/><path class="cls-1" d="M288,233c7.68-3.38,15.53-1.78,19,3s1.35,10.95,1,12c-2.38,7.07-9.85,12-19,13" transform="translate(-55.15 -106)"/><path class="cls-3" d="M130,352a100.85,100.85,0,0,1,16-37" transform="translate(-55.15 -106)"/><path class="cls-3" d="M256,353a62.32,62.32,0,0,0-20-35" transform="translate(-55.15 -106)"/><path class="cls-3" d="M332,298a68.6,68.6,0,0,0-32,2c-14.77,4.62-24,13.23-30,19a93.43,93.43,0,0,0-17,22" transform="translate(-55.15 -106)"/><path class="cls-3" d="M271,352a52.37,52.37,0,0,1,8-20,51.83,51.83,0,0,1,23-19,49.91,49.91,0,0,1,26-3" transform="translate(-55.15 -106)"/><path class="cls-4" d="M323,328q6.5-22,13-44l-34-13,18-72a552,552,0,0,1,112,43c-2.59,9.92-5.86,20.66-10,32s-8.58,21.72-13,31l-53-17-19,46a53.59,53.59,0,0,0-8-4A54.69,54.69,0,0,0,323,328Z" transform="translate(-55.15 -106)"/><path class="cls-4" d="M116.85,308.82,91.61,326.23,110,333,81.15,353.18" transform="translate(-55.15 -106)"/><path class="cls-4" d="M94.85,288.82,69.61,306.23,88,313,59.15,333.18" transform="translate(-55.15 -106)"/><path class="cls-5" d="M333,260l10-34-17,10,24,7" transform="translate(-55.15 -106)"/><path class="cls-5" d="M385.73,282.12,398,246l-17,12,22,7" transform="translate(-55.15 -106)"/><ellipse class="cls-5" cx="364.5" cy="253.5" rx="16.5" ry="7.5" transform="matrix(0.28, -0.96, 0.96, 0.28, -35.53, 427.11)"/></svg>